<?xml version="1.0" encoding="UTF-8" standalone="no"?>
<!DOCTYPE svg PUBLIC "-//W3C//DTD SVG 1.1//EN"
 "http://www.w3.org/Graphics/SVG/1.1/DTD/svg11.dtd">
<!-- Generated by graphviz version 2.40.1 (0)
 -->
<!-- Title: tree Pages: 1 -->
<svg width="627pt" height="421pt"
 viewBox="0.00 0.00 627.05 420.70" xmlns="http://www.w3.org/2000/svg" xmlns:xlink="http://www.w3.org/1999/xlink">
<g id="graph0" class="graph" transform="scale(1 1) rotate(0) translate(4 416.7006)">
<title>tree</title>
<polygon fill="#ffffff" stroke="transparent" points="-4,4 -4,-416.7006 623.0488,-416.7006 623.0488,4 -4,4"/>
<!-- n3 -->
<g id="node1" class="node">
<title>n3</title>
<ellipse fill="none" stroke="#000000" cx="298.3675" cy="-385.8305" rx="65.1077" ry="26.7407"/>
<text text-anchor="middle" x="298.3675" y="-389.6305" font-family="Times,serif" font-size="14.00" fill="#000000">drinking</text>
<text text-anchor="middle" x="298.3675" y="-374.6305" font-family="Times,serif" font-size="14.00" fill="#000000">VERB (root)</text>
</g>
<!-- n1 -->
<g id="node2" class="node">
<title>n1</title>
<ellipse fill="none" stroke="#000000" cx="76.3675" cy="-296.0904" rx="76.2353" ry="26.7407"/>
<text text-anchor="middle" x="76.3675" y="-299.8904" font-family="Times,serif" font-size="14.00" fill="#000000">Paul</text>
<text text-anchor="middle" x="76.3675" y="-284.8904" font-family="Times,serif" font-size="14.00" fill="#000000">PROPN (nsubj)</text>
</g>
<!-- n3&#45;&gt;n1 -->
<g id="edge1" class="edge">
<title>n3&#45;&gt;n1</title>
<path fill="none" stroke="#000000" d="M251.8291,-367.0181C218.2155,-353.4303 172.5327,-334.9637 136.207,-320.2796"/>
<polygon fill="#000000" stroke="#000000" points="137.291,-316.9427 126.7081,-316.4398 134.6675,-323.4325 137.291,-316.9427"/>
</g>
<!-- n2 -->
<g id="node3" class="node">
<title>n2</title>
<ellipse fill="none" stroke="#000000" cx="228.3675" cy="-296.0904" rx="57.9655" ry="26.7407"/>
<text text-anchor="middle" x="228.3675" y="-299.8904" font-family="Times,serif" font-size="14.00" fill="#000000">is</text>
<text text-anchor="middle" x="228.3675" y="-284.8904" font-family="Times,serif" font-size="14.00" fill="#000000">AUX (aux)</text>
</g>
<!-- n3&#45;&gt;n2 -->
<g id="edge2" class="edge">
<title>n3&#45;&gt;n2</title>
<path fill="none" stroke="#000000" d="M278.1206,-359.874C270.739,-350.4107 262.2857,-339.5735 254.4671,-329.5501"/>
<polygon fill="#000000" stroke="#000000" points="256.9965,-327.1021 248.0862,-321.3698 251.477,-331.4074 256.9965,-327.1021"/>
</g>
<!-- n5 -->
<g id="node4" class="node">
<title>n5</title>
<ellipse fill="none" stroke="#000000" cx="368.3675" cy="-296.0904" rx="63.7795" ry="26.7407"/>
<text text-anchor="middle" x="368.3675" y="-299.8904" font-family="Times,serif" font-size="14.00" fill="#000000">beer</text>
<text text-anchor="middle" x="368.3675" y="-284.8904" font-family="Times,serif" font-size="14.00" fill="#000000">NOUN (obj)</text>
</g>
<!-- n3&#45;&gt;n5 -->
<g id="edge3" class="edge">
<title>n3&#45;&gt;n5</title>
<path fill="none" stroke="#000000" d="M318.6144,-359.874C325.933,-350.4916 334.3049,-339.7587 342.0673,-329.8073"/>
<polygon fill="#000000" stroke="#000000" points="345.0171,-331.7163 348.4079,-321.6787 339.4976,-327.411 345.0171,-331.7163"/>
</g>
<!-- n10 -->
<g id="node5" class="node">
<title>n10</title>
<ellipse fill="none" stroke="#000000" cx="527.3675" cy="-296.0904" rx="77.5641" ry="26.7407"/>
<text text-anchor="middle" x="527.3675" y="-299.8904" font-family="Times,serif" font-size="14.00" fill="#000000">.</text>
<text text-anchor="middle" x="527.3675" y="-284.8904" font-family="Times,serif" font-size="14.00" fill="#000000">PUNCT (punct)</text>
</g>
<!-- n3&#45;&gt;n10 -->
<g id="edge4" class="edge">
<title>n3&#45;&gt;n10</title>
<path fill="none" stroke="#000000" d="M345.8165,-367.2363C380.7196,-353.5585 428.4572,-334.8512 466.2215,-320.0522"/>
<polygon fill="#000000" stroke="#000000" points="467.5603,-323.2868 475.5939,-316.3794 465.0062,-316.7693 467.5603,-323.2868"/>
</g>
<!-- n4 -->
<g id="node6" class="node">
<title>n4</title>
<ellipse fill="none" stroke="#000000" cx="293.3675" cy="-206.3503" rx="53.066" ry="26.7407"/>
<text text-anchor="middle" x="293.3675" y="-210.1503" font-family="Times,serif" font-size="14.00" fill="#000000">the</text>
<text text-anchor="middle" x="293.3675" y="-195.1503" font-family="Times,serif" font-size="14.00" fill="#000000">DET (det)</text>
</g>
<!-- n5&#45;&gt;n4 -->
<g id="edge5" class="edge">
<title>n5&#45;&gt;n4</title>
<path fill="none" stroke="#000000" d="M347.0762,-270.6145C338.8627,-260.7868 329.3646,-249.422 320.6606,-239.0074"/>
<polygon fill="#000000" stroke="#000000" points="323.2922,-236.6983 314.1938,-231.2697 317.921,-241.1873 323.2922,-236.6983"/>
</g>
<!-- n7 -->
<g id="node7" class="node">
<title>n7</title>
<ellipse fill="none" stroke="#000000" cx="443.3675" cy="-206.3503" rx="79.3924" ry="26.7407"/>
<text text-anchor="middle" x="443.3675" y="-210.1503" font-family="Times,serif" font-size="14.00" fill="#000000">bought</text>
<text text-anchor="middle" x="443.3675" y="-195.1503" font-family="Times,serif" font-size="14.00" fill="#000000">VERB (acl:relcl)</text>
</g>
<!-- n5&#45;&gt;n7 -->
<g id="edge6" class="edge">
<title>n5&#45;&gt;n7</title>
<path fill="none" stroke="#000000" d="M389.6589,-270.6145C397.5868,-261.1285 406.7116,-250.2104 415.1638,-240.097"/>
<polygon fill="#000000" stroke="#000000" points="418.0353,-242.1191 421.7625,-232.2015 412.6641,-237.6301 418.0353,-242.1191"/>
</g>
<!-- n6 -->
<g id="node8" class="node">
<title>n6</title>
<ellipse fill="none" stroke="#000000" cx="355.3675" cy="-116.6102" rx="70.922" ry="26.7407"/>
<text text-anchor="middle" x="355.3675" y="-120.4102" font-family="Times,serif" font-size="14.00" fill="#000000">he</text>
<text text-anchor="middle" x="355.3675" y="-105.4102" font-family="Times,serif" font-size="14.00" fill="#000000">PRON (nsubj)</text>
</g>
<!-- n7&#45;&gt;n6 -->
<g id="edge7" class="edge">
<title>n7&#45;&gt;n6</title>
<path fill="none" stroke="#000000" d="M417.9143,-180.3937C408.3561,-170.6465 397.3687,-159.4418 387.296,-149.17"/>
<polygon fill="#000000" stroke="#000000" points="389.6573,-146.579 380.1568,-141.8896 384.6593,-151.4801 389.6573,-146.579"/>
</g>
<!-- n9 -->
<g id="node9" class="node">
<title>n9</title>
<ellipse fill="none" stroke="#000000" cx="531.3675" cy="-116.6102" rx="87.8629" ry="26.7407"/>
<text text-anchor="middle" x="531.3675" y="-120.4102" font-family="Times,serif" font-size="14.00" fill="#000000">morning</text>
<text text-anchor="middle" x="531.3675" y="-105.4102" font-family="Times,serif" font-size="14.00" fill="#000000">NOUN (obl:tmod)</text>
</g>
<!-- n7&#45;&gt;n9 -->
<g id="edge8" class="edge">
<title>n7&#45;&gt;n9</title>
<path fill="none" stroke="#000000" d="M468.8208,-180.3937C478.2156,-170.8132 488.9912,-159.8245 498.9217,-149.6976"/>
<polygon fill="#000000" stroke="#000000" points="501.4689,-152.0989 505.9715,-142.5084 496.471,-147.1978 501.4689,-152.0989"/>
</g>
<!-- n8 -->
<g id="node10" class="node">
<title>n8</title>
<ellipse fill="none" stroke="#000000" cx="531.3675" cy="-26.8701" rx="53.066" ry="26.7407"/>
<text text-anchor="middle" x="531.3675" y="-30.6701" font-family="Times,serif" font-size="14.00" fill="#000000">this</text>
<text text-anchor="middle" x="531.3675" y="-15.6701" font-family="Times,serif" font-size="14.00" fill="#000000">DET (det)</text>
</g>
<!-- n9&#45;&gt;n8 -->
<g id="edge9" class="edge">
<title>n9&#45;&gt;n8</title>
<path fill="none" stroke="#000000" d="M531.3675,-89.6852C531.3675,-81.6102 531.3675,-72.607 531.3675,-63.9961"/>
<polygon fill="#000000" stroke="#000000" points="534.8676,-63.776 531.3675,-53.776 527.8676,-63.7761 534.8676,-63.776"/>
</g>
</g>
</svg>
