<?xml version="1.0" encoding="UTF-8" standalone="no"?>
<!DOCTYPE svg PUBLIC "-//W3C//DTD SVG 1.1//EN"
 "http://www.w3.org/Graphics/SVG/1.1/DTD/svg11.dtd">
<!-- Generated by graphviz version 2.40.1 (0)
 -->
<!-- Title: tree Pages: 1 -->
<svg width="1711pt" height="959pt"
 viewBox="0.00 0.00 1710.81 959.14" xmlns="http://www.w3.org/2000/svg" xmlns:xlink="http://www.w3.org/1999/xlink">
<g id="graph0" class="graph" transform="scale(1 1) rotate(0) translate(4 955.1413)">
<title>tree</title>
<polygon fill="#ffffff" stroke="transparent" points="-4,4 -4,-955.1413 1706.8148,-955.1413 1706.8148,4 -4,4"/>
<!-- n4 -->
<g id="node1" class="node">
<title>n4</title>
<ellipse fill="none" stroke="#000000" cx="403.033" cy="-924.2712" rx="44.5955" ry="26.7407"/>
<text text-anchor="middle" x="403.033" y="-928.0712" font-family="Times,serif" font-size="14.00" fill="#000000">ramassa</text>
<text text-anchor="middle" x="403.033" y="-913.0712" font-family="Times,serif" font-size="14.00" fill="#000000">V (root)</text>
</g>
<!-- n2 -->
<g id="node2" class="node">
<title>n2</title>
<ellipse fill="none" stroke="#000000" cx="53.033" cy="-834.5311" rx="50.41" ry="26.7407"/>
<text text-anchor="middle" x="53.033" y="-838.3311" font-family="Times,serif" font-size="14.00" fill="#000000">laboureur</text>
<text text-anchor="middle" x="53.033" y="-823.3311" font-family="Times,serif" font-size="14.00" fill="#000000">NC (suj)</text>
</g>
<!-- n4&#45;&gt;n2 -->
<g id="edge1" class="edge">
<title>n4&#45;&gt;n2</title>
<path fill="none" stroke="#000000" d="M359.5404,-917.7397C302.159,-908.4698 198.4431,-889.4467 113.033,-861.4012 108.7073,-859.9808 104.2729,-858.3506 99.8686,-856.6105"/>
<polygon fill="#000000" stroke="#000000" points="100.9074,-853.2527 90.3289,-852.6644 98.2317,-859.7211 100.9074,-853.2527"/>
</g>
<!-- n3 -->
<g id="node3" class="node">
<title>n3</title>
<ellipse fill="none" stroke="#000000" cx="176.033" cy="-834.5311" rx="54.3945" ry="26.7407"/>
<text text-anchor="middle" x="176.033" y="-838.3311" font-family="Times,serif" font-size="14.00" fill="#000000">le</text>
<text text-anchor="middle" x="176.033" y="-823.3311" font-family="Times,serif" font-size="14.00" fill="#000000">CLO (obj)</text>
</g>
<!-- n4&#45;&gt;n3 -->
<g id="edge2" class="edge">
<title>n4&#45;&gt;n3</title>
<path fill="none" stroke="#000000" d="M365.0969,-910.1838C331.7567,-897.6947 281.9958,-878.7912 239.033,-861.4012 234.9548,-859.7504 230.7395,-858.0156 226.5118,-856.2554"/>
<polygon fill="#000000" stroke="#000000" points="227.8608,-853.0259 217.2854,-852.3844 225.1526,-859.4808 227.8608,-853.0259"/>
</g>
<!-- n5 -->
<g id="node4" class="node">
<title>n5</title>
<ellipse fill="none" stroke="#000000" cx="326.033" cy="-834.5311" rx="77.5641" ry="26.7407"/>
<text text-anchor="middle" x="326.033" y="-838.3311" font-family="Times,serif" font-size="14.00" fill="#000000">,</text>
<text text-anchor="middle" x="326.033" y="-823.3311" font-family="Times,serif" font-size="14.00" fill="#000000">PONCT (ponct)</text>
</g>
<!-- n4&#45;&gt;n5 -->
<g id="edge3" class="edge">
<title>n4&#45;&gt;n5</title>
<path fill="none" stroke="#000000" d="M382.3984,-900.2225C374.0207,-890.4586 364.1928,-879.0047 355.1103,-868.4195"/>
<polygon fill="#000000" stroke="#000000" points="357.5147,-865.8467 348.3466,-860.5366 352.2022,-870.405 357.5147,-865.8467"/>
</g>
<!-- n6 -->
<g id="node5" class="node">
<title>n6</title>
<ellipse fill="none" stroke="#000000" cx="480.033" cy="-834.5311" rx="57.9655" ry="26.7407"/>
<text text-anchor="middle" x="480.033" y="-838.3311" font-family="Times,serif" font-size="14.00" fill="#000000">et</text>
<text text-anchor="middle" x="480.033" y="-823.3311" font-family="Times,serif" font-size="14.00" fill="#000000">CC (coord)</text>
</g>
<!-- n4&#45;&gt;n6 -->
<g id="edge4" class="edge">
<title>n4&#45;&gt;n6</title>
<path fill="none" stroke="#000000" d="M423.6676,-900.2225C432.3425,-890.1123 442.5724,-878.1898 451.9194,-867.2963"/>
<polygon fill="#000000" stroke="#000000" points="454.679,-869.4549 458.5346,-859.5865 449.3666,-864.8966 454.679,-869.4549"/>
</g>
<!-- n7 -->
<g id="node6" class="node">
<title>n7</title>
<ellipse fill="none" stroke="#000000" cx="615.033" cy="-834.5311" rx="59.2941" ry="26.7407"/>
<text text-anchor="middle" x="615.033" y="-838.3311" font-family="Times,serif" font-size="14.00" fill="#000000">revenant</text>
<text text-anchor="middle" x="615.033" y="-823.3311" font-family="Times,serif" font-size="14.00" fill="#000000">VPR (mod)</text>
</g>
<!-- n4&#45;&gt;n7 -->
<g id="edge5" class="edge">
<title>n4&#45;&gt;n7</title>
<path fill="none" stroke="#000000" d="M439.9606,-908.6397C473.7539,-894.3349 524.1368,-873.0077 562.189,-856.9001"/>
<polygon fill="#000000" stroke="#000000" points="563.7355,-860.0462 571.58,-852.9249 561.0067,-853.5999 563.7355,-860.0462"/>
</g>
<!-- n13 -->
<g id="node7" class="node">
<title>n13</title>
<ellipse fill="none" stroke="#000000" cx="810.033" cy="-834.5311" rx="46.8387" ry="26.7407"/>
<text text-anchor="middle" x="810.033" y="-838.3311" font-family="Times,serif" font-size="14.00" fill="#000000">trouva</text>
<text text-anchor="middle" x="810.033" y="-823.3311" font-family="Times,serif" font-size="14.00" fill="#000000">V (mod)</text>
</g>
<!-- n4&#45;&gt;n13 -->
<g id="edge6" class="edge">
<title>n4&#45;&gt;n13</title>
<path fill="none" stroke="#000000" d="M445.0562,-915.0054C519.5344,-898.5836 674.5499,-864.404 756.5325,-846.3275"/>
<polygon fill="#000000" stroke="#000000" points="757.3867,-849.7233 766.3984,-844.1522 755.8794,-842.8875 757.3867,-849.7233"/>
</g>
<!-- n1 -->
<g id="node8" class="node">
<title>n1</title>
<ellipse fill="none" stroke="#000000" cx="53.033" cy="-744.791" rx="53.066" ry="26.7407"/>
<text text-anchor="middle" x="53.033" y="-748.591" font-family="Times,serif" font-size="14.00" fill="#000000">Le</text>
<text text-anchor="middle" x="53.033" y="-733.591" font-family="Times,serif" font-size="14.00" fill="#000000">DET (det)</text>
</g>
<!-- n2&#45;&gt;n1 -->
<g id="edge7" class="edge">
<title>n2&#45;&gt;n1</title>
<path fill="none" stroke="#000000" d="M53.033,-807.6061C53.033,-799.5312 53.033,-790.5279 53.033,-781.917"/>
<polygon fill="#000000" stroke="#000000" points="56.5331,-781.6969 53.033,-771.697 49.5331,-781.697 56.5331,-781.6969"/>
</g>
<!-- n8 -->
<g id="node9" class="node">
<title>n8</title>
<ellipse fill="none" stroke="#000000" cx="528.033" cy="-744.791" rx="44.5955" ry="26.7407"/>
<text text-anchor="middle" x="528.033" y="-748.591" font-family="Times,serif" font-size="14.00" fill="#000000">sur</text>
<text text-anchor="middle" x="528.033" y="-733.591" font-family="Times,serif" font-size="14.00" fill="#000000">P (mod)</text>
</g>
<!-- n7&#45;&gt;n8 -->
<g id="edge8" class="edge">
<title>n7&#45;&gt;n8</title>
<path fill="none" stroke="#000000" d="M590.7987,-809.5335C580.5858,-798.999 568.5975,-786.6331 557.85,-775.547"/>
<polygon fill="#000000" stroke="#000000" points="560.1182,-772.8584 550.6446,-768.1148 555.0923,-777.7309 560.1182,-772.8584"/>
</g>
<!-- n12 -->
<g id="node13" class="node">
<title>n12</title>
<ellipse fill="none" stroke="#000000" cx="719.033" cy="-744.791" rx="51.7379" ry="26.7407"/>
<text text-anchor="middle" x="719.033" y="-748.591" font-family="Times,serif" font-size="14.00" fill="#000000">il</text>
<text text-anchor="middle" x="719.033" y="-733.591" font-family="Times,serif" font-size="14.00" fill="#000000">CLS (suj)</text>
</g>
<!-- n13&#45;&gt;n12 -->
<g id="edge12" class="edge">
<title>n13&#45;&gt;n12</title>
<path fill="none" stroke="#000000" d="M786.1238,-810.9529C775.3245,-800.3031 762.4126,-787.57 750.8132,-776.1312"/>
<polygon fill="#000000" stroke="#000000" points="752.9934,-773.3656 743.4156,-768.836 748.0782,-778.3497 752.9934,-773.3656"/>
</g>
<!-- n15 -->
<g id="node14" class="node">
<title>n15</title>
<ellipse fill="none" stroke="#000000" cx="837.033" cy="-744.791" rx="48.1667" ry="26.7407"/>
<text text-anchor="middle" x="837.033" y="-748.591" font-family="Times,serif" font-size="14.00" fill="#000000">mur</text>
<text text-anchor="middle" x="837.033" y="-733.591" font-family="Times,serif" font-size="14.00" fill="#000000">NC (obj)</text>
</g>
<!-- n13&#45;&gt;n15 -->
<g id="edge13" class="edge">
<title>n13&#45;&gt;n15</title>
<path fill="none" stroke="#000000" d="M818.1339,-807.6061C820.6394,-799.2787 823.4419,-789.9639 826.1056,-781.1104"/>
<polygon fill="#000000" stroke="#000000" points="829.5013,-781.9721 829.0309,-771.3877 822.7981,-779.9553 829.5013,-781.9721"/>
</g>
<!-- n26 -->
<g id="node15" class="node">
<title>n26</title>
<ellipse fill="none" stroke="#000000" cx="1161.033" cy="-744.791" rx="57.9655" ry="26.7407"/>
<text text-anchor="middle" x="1161.033" y="-748.591" font-family="Times,serif" font-size="14.00" fill="#000000">et</text>
<text text-anchor="middle" x="1161.033" y="-733.591" font-family="Times,serif" font-size="14.00" fill="#000000">CC (coord)</text>
</g>
<!-- n13&#45;&gt;n26 -->
<g id="edge14" class="edge">
<title>n13&#45;&gt;n26</title>
<path fill="none" stroke="#000000" d="M852.7216,-823.6169C914.5396,-807.8119 1029.3017,-778.4707 1100.0328,-760.3869"/>
<polygon fill="#000000" stroke="#000000" points="1101.3161,-763.6715 1110.1375,-757.8034 1099.5821,-756.8896 1101.3161,-763.6715"/>
</g>
<!-- n10 -->
<g id="node10" class="node">
<title>n10</title>
<ellipse fill="none" stroke="#000000" cx="511.033" cy="-655.0509" rx="53.066" ry="26.7407"/>
<text text-anchor="middle" x="511.033" y="-658.8509" font-family="Times,serif" font-size="14.00" fill="#000000">pas</text>
<text text-anchor="middle" x="511.033" y="-643.8509" font-family="Times,serif" font-size="14.00" fill="#000000">NC (prep)</text>
</g>
<!-- n8&#45;&gt;n10 -->
<g id="edge9" class="edge">
<title>n8&#45;&gt;n10</title>
<path fill="none" stroke="#000000" d="M522.9324,-717.866C521.386,-709.7023 519.6597,-700.5898 518.0123,-691.8931"/>
<polygon fill="#000000" stroke="#000000" points="521.4301,-691.1306 516.13,-681.9569 514.5525,-692.4336 521.4301,-691.1306"/>
</g>
<!-- n9 -->
<g id="node11" class="node">
<title>n9</title>
<ellipse fill="none" stroke="#000000" cx="362.033" cy="-565.3107" rx="53.066" ry="26.7407"/>
<text text-anchor="middle" x="362.033" y="-569.1107" font-family="Times,serif" font-size="14.00" fill="#000000">ses</text>
<text text-anchor="middle" x="362.033" y="-554.1107" font-family="Times,serif" font-size="14.00" fill="#000000">DET (det)</text>
</g>
<!-- n10&#45;&gt;n9 -->
<g id="edge10" class="edge">
<title>n10&#45;&gt;n9</title>
<path fill="none" stroke="#000000" d="M476.8494,-634.4627C455.5358,-621.6258 427.9222,-604.9946 405.1168,-591.2594"/>
<polygon fill="#000000" stroke="#000000" points="406.6873,-588.1195 396.3152,-585.9583 403.0758,-594.1159 406.6873,-588.1195"/>
</g>
<!-- n11 -->
<g id="node12" class="node">
<title>n11</title>
<ellipse fill="none" stroke="#000000" cx="511.033" cy="-565.3107" rx="77.5641" ry="26.7407"/>
<text text-anchor="middle" x="511.033" y="-569.1107" font-family="Times,serif" font-size="14.00" fill="#000000">,</text>
<text text-anchor="middle" x="511.033" y="-554.1107" font-family="Times,serif" font-size="14.00" fill="#000000">PONCT (ponct)</text>
</g>
<!-- n10&#45;&gt;n11 -->
<g id="edge11" class="edge">
<title>n10&#45;&gt;n11</title>
<path fill="none" stroke="#000000" d="M511.033,-628.1259C511.033,-620.0509 511.033,-611.0477 511.033,-602.4368"/>
<polygon fill="#000000" stroke="#000000" points="514.5331,-602.2167 511.033,-592.2167 507.5331,-602.2168 514.5331,-602.2167"/>
</g>
<!-- n14 -->
<g id="node16" class="node">
<title>n14</title>
<ellipse fill="none" stroke="#000000" cx="708.033" cy="-655.0509" rx="53.066" ry="26.7407"/>
<text text-anchor="middle" x="708.033" y="-658.8509" font-family="Times,serif" font-size="14.00" fill="#000000">le</text>
<text text-anchor="middle" x="708.033" y="-643.8509" font-family="Times,serif" font-size="14.00" fill="#000000">DET (det)</text>
</g>
<!-- n15&#45;&gt;n14 -->
<g id="edge15" class="edge">
<title>n15&#45;&gt;n14</title>
<path fill="none" stroke="#000000" d="M806.7882,-723.7509C789.2227,-711.5313 766.8821,-695.9898 747.8943,-682.7808"/>
<polygon fill="#000000" stroke="#000000" points="749.6431,-679.7337 739.4353,-676.8962 745.6456,-685.4801 749.6431,-679.7337"/>
</g>
<!-- n16 -->
<g id="node17" class="node">
<title>n16</title>
<ellipse fill="none" stroke="#000000" cx="837.033" cy="-655.0509" rx="57.9655" ry="26.7407"/>
<text text-anchor="middle" x="837.033" y="-658.8509" font-family="Times,serif" font-size="14.00" fill="#000000">écroulé</text>
<text text-anchor="middle" x="837.033" y="-643.8509" font-family="Times,serif" font-size="14.00" fill="#000000">VPP (mod)</text>
</g>
<!-- n15&#45;&gt;n16 -->
<g id="edge16" class="edge">
<title>n15&#45;&gt;n16</title>
<path fill="none" stroke="#000000" d="M837.033,-717.866C837.033,-709.7911 837.033,-700.7878 837.033,-692.1769"/>
<polygon fill="#000000" stroke="#000000" points="840.5331,-691.9568 837.033,-681.9569 833.5331,-691.9569 840.5331,-691.9568"/>
</g>
<!-- n24 -->
<g id="node18" class="node">
<title>n24</title>
<ellipse fill="none" stroke="#000000" cx="1000.033" cy="-655.0509" rx="73.5782" ry="26.7407"/>
<text text-anchor="middle" x="1000.033" y="-658.8509" font-family="Times,serif" font-size="14.00" fill="#000000">assis</text>
<text text-anchor="middle" x="1000.033" y="-643.8509" font-family="Times,serif" font-size="14.00" fill="#000000">VPP (mod_rel)</text>
</g>
<!-- n15&#45;&gt;n24 -->
<g id="edge17" class="edge">
<title>n15&#45;&gt;n24</title>
<path fill="none" stroke="#000000" d="M871.6011,-725.7594C894.5062,-713.1489 924.9137,-696.408 950.3915,-682.3812"/>
<polygon fill="#000000" stroke="#000000" points="952.1052,-685.4331 959.1773,-677.5441 948.7291,-679.301 952.1052,-685.4331"/>
</g>
<!-- n27 -->
<g id="node27" class="node">
<title>n27</title>
<ellipse fill="none" stroke="#000000" cx="1362.033" cy="-655.0509" rx="71.3357" ry="26.7407"/>
<text text-anchor="middle" x="1362.033" y="-658.8509" font-family="Times,serif" font-size="14.00" fill="#000000">fut</text>
<text text-anchor="middle" x="1362.033" y="-643.8509" font-family="Times,serif" font-size="14.00" fill="#000000">V (dep_coord)</text>
</g>
<!-- n26&#45;&gt;n27 -->
<g id="edge26" class="edge">
<title>n26&#45;&gt;n27</title>
<path fill="none" stroke="#000000" d="M1203.1692,-725.9785C1233.1346,-712.5999 1273.6935,-694.4916 1306.329,-679.9209"/>
<polygon fill="#000000" stroke="#000000" points="1308.0398,-682.9902 1315.7441,-675.7174 1305.186,-676.5983 1308.0398,-682.9902"/>
</g>
<!-- n17 -->
<g id="node19" class="node">
<title>n17</title>
<ellipse fill="none" stroke="#000000" cx="651.033" cy="-565.3107" rx="44.5955" ry="26.7407"/>
<text text-anchor="middle" x="651.033" y="-569.1107" font-family="Times,serif" font-size="14.00" fill="#000000">à</text>
<text text-anchor="middle" x="651.033" y="-554.1107" font-family="Times,serif" font-size="14.00" fill="#000000">P (mod)</text>
</g>
<!-- n16&#45;&gt;n17 -->
<g id="edge18" class="edge">
<title>n16&#45;&gt;n17</title>
<path fill="none" stroke="#000000" d="M796.2131,-635.8309C770.0879,-623.475 735.5002,-607.0151 705.033,-592.1808 701.6819,-590.5492 698.2188,-588.8518 694.7395,-587.1386"/>
<polygon fill="#000000" stroke="#000000" points="696.0737,-583.8938 685.5581,-582.6005 692.972,-590.1692 696.0737,-583.8938"/>
</g>
<!-- n20 -->
<g id="node22" class="node">
<title>n20</title>
<ellipse fill="none" stroke="#000000" cx="792.033" cy="-565.3107" rx="78.4777" ry="26.7407"/>
<text text-anchor="middle" x="792.033" y="-569.1107" font-family="Times,serif" font-size="14.00" fill="#000000">où</text>
<text text-anchor="middle" x="792.033" y="-554.1107" font-family="Times,serif" font-size="14.00" fill="#000000">PROREL (mod)</text>
</g>
<!-- n24&#45;&gt;n20 -->
<g id="edge21" class="edge">
<title>n24&#45;&gt;n20</title>
<path fill="none" stroke="#000000" d="M952.3136,-634.4627C921.9663,-621.3695 882.4696,-604.329 850.2781,-590.4402"/>
<polygon fill="#000000" stroke="#000000" points="851.5427,-587.174 840.9743,-586.4261 848.7697,-593.6013 851.5427,-587.174"/>
</g>
<!-- n21 -->
<g id="node23" class="node">
<title>n21</title>
<ellipse fill="none" stroke="#000000" cx="940.033" cy="-565.3107" rx="51.7379" ry="26.7407"/>
<text text-anchor="middle" x="940.033" y="-569.1107" font-family="Times,serif" font-size="14.00" fill="#000000">il</text>
<text text-anchor="middle" x="940.033" y="-554.1107" font-family="Times,serif" font-size="14.00" fill="#000000">CLS (suj)</text>
</g>
<!-- n24&#45;&gt;n21 -->
<g id="edge22" class="edge">
<title>n24&#45;&gt;n21</title>
<path fill="none" stroke="#000000" d="M982.3555,-628.6112C976.2684,-619.507 969.3621,-609.1774 962.9201,-599.5423"/>
<polygon fill="#000000" stroke="#000000" points="965.6391,-597.3118 957.1714,-590.9441 959.82,-601.2025 965.6391,-597.3118"/>
</g>
<!-- n22 -->
<g id="node24" class="node">
<title>n22</title>
<ellipse fill="none" stroke="#000000" cx="1061.033" cy="-565.3107" rx="51.7379" ry="26.7407"/>
<text text-anchor="middle" x="1061.033" y="-569.1107" font-family="Times,serif" font-size="14.00" fill="#000000">s&#39;</text>
<text text-anchor="middle" x="1061.033" y="-554.1107" font-family="Times,serif" font-size="14.00" fill="#000000">CLR (aff)</text>
</g>
<!-- n24&#45;&gt;n22 -->
<g id="edge23" class="edge">
<title>n24&#45;&gt;n22</title>
<path fill="none" stroke="#000000" d="M1018.0051,-628.6112C1024.2568,-619.4141 1031.3585,-608.9664 1037.9648,-599.2476"/>
<polygon fill="#000000" stroke="#000000" points="1040.8819,-601.1819 1043.609,-590.9441 1035.0927,-597.2468 1040.8819,-601.1819"/>
</g>
<!-- n23 -->
<g id="node25" class="node">
<title>n23</title>
<ellipse fill="none" stroke="#000000" cx="1191.033" cy="-565.3107" rx="60.2083" ry="26.7407"/>
<text text-anchor="middle" x="1191.033" y="-569.1107" font-family="Times,serif" font-size="14.00" fill="#000000">était</text>
<text text-anchor="middle" x="1191.033" y="-554.1107" font-family="Times,serif" font-size="14.00" fill="#000000">V (aux_tps)</text>
</g>
<!-- n24&#45;&gt;n23 -->
<g id="edge24" class="edge">
<title>n24&#45;&gt;n23</title>
<path fill="none" stroke="#000000" d="M1045.2973,-633.7837C1073.7664,-620.4077 1110.5617,-603.1197 1140.0569,-589.2615"/>
<polygon fill="#000000" stroke="#000000" points="1141.7945,-592.3123 1149.357,-584.892 1138.8178,-585.9767 1141.7945,-592.3123"/>
</g>
<!-- n25 -->
<g id="node26" class="node">
<title>n25</title>
<ellipse fill="none" stroke="#000000" cx="1347.033" cy="-565.3107" rx="77.5641" ry="26.7407"/>
<text text-anchor="middle" x="1347.033" y="-569.1107" font-family="Times,serif" font-size="14.00" fill="#000000">,</text>
<text text-anchor="middle" x="1347.033" y="-554.1107" font-family="Times,serif" font-size="14.00" fill="#000000">PONCT (ponct)</text>
</g>
<!-- n24&#45;&gt;n25 -->
<g id="edge25" class="edge">
<title>n24&#45;&gt;n25</title>
<path fill="none" stroke="#000000" d="M1062.8306,-641.021C1115.6656,-628.941 1193.0914,-610.5926 1260.033,-592.1808 1266.4847,-590.4063 1273.1814,-588.484 1279.8656,-586.5113"/>
<polygon fill="#000000" stroke="#000000" points="1281.0408,-589.8132 1289.62,-583.5964 1279.0365,-583.1063 1281.0408,-589.8132"/>
</g>
<!-- n19 -->
<g id="node20" class="node">
<title>n19</title>
<ellipse fill="none" stroke="#000000" cx="651.033" cy="-475.5706" rx="53.066" ry="26.7407"/>
<text text-anchor="middle" x="651.033" y="-479.3706" font-family="Times,serif" font-size="14.00" fill="#000000">endroit</text>
<text text-anchor="middle" x="651.033" y="-464.3706" font-family="Times,serif" font-size="14.00" fill="#000000">NC (prep)</text>
</g>
<!-- n17&#45;&gt;n19 -->
<g id="edge19" class="edge">
<title>n17&#45;&gt;n19</title>
<path fill="none" stroke="#000000" d="M651.033,-538.3858C651.033,-530.3108 651.033,-521.3075 651.033,-512.6966"/>
<polygon fill="#000000" stroke="#000000" points="654.5331,-512.4766 651.033,-502.4766 647.5331,-512.4767 654.5331,-512.4766"/>
</g>
<!-- n18 -->
<g id="node21" class="node">
<title>n18</title>
<ellipse fill="none" stroke="#000000" cx="651.033" cy="-385.8305" rx="53.066" ry="26.7407"/>
<text text-anchor="middle" x="651.033" y="-389.6305" font-family="Times,serif" font-size="14.00" fill="#000000">l&#39;</text>
<text text-anchor="middle" x="651.033" y="-374.6305" font-family="Times,serif" font-size="14.00" fill="#000000">DET (det)</text>
</g>
<!-- n19&#45;&gt;n18 -->
<g id="edge20" class="edge">
<title>n19&#45;&gt;n18</title>
<path fill="none" stroke="#000000" d="M651.033,-448.6456C651.033,-440.5707 651.033,-431.5674 651.033,-422.9565"/>
<polygon fill="#000000" stroke="#000000" points="654.5331,-422.7365 651.033,-412.7365 647.5331,-422.7365 654.5331,-422.7365"/>
</g>
<!-- n29 -->
<g id="node28" class="node">
<title>n29</title>
<ellipse fill="none" stroke="#000000" cx="1501.033" cy="-565.3107" rx="57.9655" ry="26.7407"/>
<text text-anchor="middle" x="1501.033" y="-569.1107" font-family="Times,serif" font-size="14.00" fill="#000000">étonné</text>
<text text-anchor="middle" x="1501.033" y="-554.1107" font-family="Times,serif" font-size="14.00" fill="#000000">VPP (mod)</text>
</g>
<!-- n27&#45;&gt;n29 -->
<g id="edge27" class="edge">
<title>n27&#45;&gt;n29</title>
<path fill="none" stroke="#000000" d="M1398.1908,-631.707C1416.6064,-619.8176 1439.1152,-605.2857 1458.3747,-592.8515"/>
<polygon fill="#000000" stroke="#000000" points="1460.4658,-595.6676 1466.9686,-587.3031 1456.669,-589.7867 1460.4658,-595.6676"/>
</g>
<!-- n28 -->
<g id="node29" class="node">
<title>n28</title>
<ellipse fill="none" stroke="#000000" cx="1439.033" cy="-475.5706" rx="61.5366" ry="26.7407"/>
<text text-anchor="middle" x="1439.033" y="-479.3706" font-family="Times,serif" font-size="14.00" fill="#000000">bien</text>
<text text-anchor="middle" x="1439.033" y="-464.3706" font-family="Times,serif" font-size="14.00" fill="#000000">ADV (mod)</text>
</g>
<!-- n29&#45;&gt;n28 -->
<g id="edge28" class="edge">
<title>n29&#45;&gt;n28</title>
<path fill="none" stroke="#000000" d="M1483.1,-539.3542C1476.738,-530.1457 1469.4773,-519.6363 1462.7103,-509.8416"/>
<polygon fill="#000000" stroke="#000000" points="1465.4895,-507.7068 1456.9257,-501.4689 1459.7303,-511.6858 1465.4895,-507.7068"/>
</g>
<!-- n30 -->
<g id="node30" class="node">
<title>n30</title>
<ellipse fill="none" stroke="#000000" cx="1563.033" cy="-475.5706" rx="44.5955" ry="26.7407"/>
<text text-anchor="middle" x="1563.033" y="-479.3706" font-family="Times,serif" font-size="14.00" fill="#000000">d&#39;</text>
<text text-anchor="middle" x="1563.033" y="-464.3706" font-family="Times,serif" font-size="14.00" fill="#000000">P (mod)</text>
</g>
<!-- n29&#45;&gt;n30 -->
<g id="edge29" class="edge">
<title>n29&#45;&gt;n30</title>
<path fill="none" stroke="#000000" d="M1518.966,-539.3542C1525.5599,-529.81 1533.1193,-518.8684 1540.0937,-508.7735"/>
<polygon fill="#000000" stroke="#000000" points="1542.9759,-510.7591 1545.7806,-500.5422 1537.2168,-506.7801 1542.9759,-510.7591"/>
</g>
<!-- n31 -->
<g id="node31" class="node">
<title>n31</title>
<ellipse fill="none" stroke="#000000" cx="1563.033" cy="-385.8305" rx="62.8651" ry="26.7407"/>
<text text-anchor="middle" x="1563.033" y="-389.6305" font-family="Times,serif" font-size="14.00" fill="#000000">être</text>
<text text-anchor="middle" x="1563.033" y="-374.6305" font-family="Times,serif" font-size="14.00" fill="#000000">VINF (prep)</text>
</g>
<!-- n30&#45;&gt;n31 -->
<g id="edge30" class="edge">
<title>n30&#45;&gt;n31</title>
<path fill="none" stroke="#000000" d="M1563.033,-448.6456C1563.033,-440.5707 1563.033,-431.5674 1563.033,-422.9565"/>
<polygon fill="#000000" stroke="#000000" points="1566.5331,-422.7365 1563.033,-412.7365 1559.5331,-422.7365 1566.5331,-422.7365"/>
</g>
<!-- n33 -->
<g id="node32" class="node">
<title>n33</title>
<ellipse fill="none" stroke="#000000" cx="1563.033" cy="-296.0904" rx="50.41" ry="26.7407"/>
<text text-anchor="middle" x="1563.033" y="-299.8904" font-family="Times,serif" font-size="14.00" fill="#000000">payé</text>
<text text-anchor="middle" x="1563.033" y="-284.8904" font-family="Times,serif" font-size="14.00" fill="#000000">VPP (ats)</text>
</g>
<!-- n31&#45;&gt;n33 -->
<g id="edge31" class="edge">
<title>n31&#45;&gt;n33</title>
<path fill="none" stroke="#000000" d="M1563.033,-358.9055C1563.033,-350.8306 1563.033,-341.8273 1563.033,-333.2164"/>
<polygon fill="#000000" stroke="#000000" points="1566.5331,-332.9964 1563.033,-322.9964 1559.5331,-332.9964 1566.5331,-332.9964"/>
</g>
<!-- n32 -->
<g id="node33" class="node">
<title>n32</title>
<ellipse fill="none" stroke="#000000" cx="1501.033" cy="-206.3503" rx="61.5366" ry="26.7407"/>
<text text-anchor="middle" x="1501.033" y="-210.1503" font-family="Times,serif" font-size="14.00" fill="#000000">ainsi</text>
<text text-anchor="middle" x="1501.033" y="-195.1503" font-family="Times,serif" font-size="14.00" fill="#000000">ADV (mod)</text>
</g>
<!-- n33&#45;&gt;n32 -->
<g id="edge32" class="edge">
<title>n33&#45;&gt;n32</title>
<path fill="none" stroke="#000000" d="M1545.4321,-270.6145C1539.0082,-261.3163 1531.6336,-250.6423 1524.7638,-240.6987"/>
<polygon fill="#000000" stroke="#000000" points="1527.457,-238.4394 1518.8932,-232.2015 1521.6978,-242.4184 1527.457,-238.4394"/>
</g>
<!-- n34 -->
<g id="node34" class="node">
<title>n34</title>
<ellipse fill="none" stroke="#000000" cx="1625.033" cy="-206.3503" rx="44.5955" ry="26.7407"/>
<text text-anchor="middle" x="1625.033" y="-210.1503" font-family="Times,serif" font-size="14.00" fill="#000000">de</text>
<text text-anchor="middle" x="1625.033" y="-195.1503" font-family="Times,serif" font-size="14.00" fill="#000000">P (mod)</text>
</g>
<!-- n33&#45;&gt;n34 -->
<g id="edge33" class="edge">
<title>n33&#45;&gt;n34</title>
<path fill="none" stroke="#000000" d="M1580.6339,-270.6145C1587.2906,-260.9795 1594.9679,-249.8671 1602.0467,-239.6211"/>
<polygon fill="#000000" stroke="#000000" points="1605.012,-241.4866 1607.8166,-231.2697 1599.2528,-237.5076 1605.012,-241.4866"/>
</g>
<!-- n35 -->
<g id="node35" class="node">
<title>n35</title>
<ellipse fill="none" stroke="#000000" cx="1625.033" cy="-116.6102" rx="53.066" ry="26.7407"/>
<text text-anchor="middle" x="1625.033" y="-120.4102" font-family="Times,serif" font-size="14.00" fill="#000000">retour</text>
<text text-anchor="middle" x="1625.033" y="-105.4102" font-family="Times,serif" font-size="14.00" fill="#000000">NC (prep)</text>
</g>
<!-- n34&#45;&gt;n35 -->
<g id="edge34" class="edge">
<title>n34&#45;&gt;n35</title>
<path fill="none" stroke="#000000" d="M1625.033,-179.4253C1625.033,-171.3504 1625.033,-162.3471 1625.033,-153.7362"/>
<polygon fill="#000000" stroke="#000000" points="1628.5331,-153.5161 1625.033,-143.5162 1621.5331,-153.5162 1628.5331,-153.5161"/>
</g>
<!-- n36 -->
<g id="node36" class="node">
<title>n36</title>
<ellipse fill="none" stroke="#000000" cx="1625.033" cy="-26.8701" rx="77.5641" ry="26.7407"/>
<text text-anchor="middle" x="1625.033" y="-30.6701" font-family="Times,serif" font-size="14.00" fill="#000000">.</text>
<text text-anchor="middle" x="1625.033" y="-15.6701" font-family="Times,serif" font-size="14.00" fill="#000000">PONCT (ponct)</text>
</g>
<!-- n35&#45;&gt;n36 -->
<g id="edge35" class="edge">
<title>n35&#45;&gt;n36</title>
<path fill="none" stroke="#000000" d="M1625.033,-89.6852C1625.033,-81.6102 1625.033,-72.607 1625.033,-63.9961"/>
<polygon fill="#000000" stroke="#000000" points="1628.5331,-63.776 1625.033,-53.776 1621.5331,-63.7761 1628.5331,-63.776"/>
</g>
</g>
</svg>
