<?xml version="1.0" encoding="UTF-8" standalone="no"?>
<!DOCTYPE svg PUBLIC "-//W3C//DTD SVG 1.1//EN"
 "http://www.w3.org/Graphics/SVG/1.1/DTD/svg11.dtd">
<!-- Generated by graphviz version 2.40.1 (0)
 -->
<!-- Title: tree Pages: 1 -->
<svg width="505pt" height="331pt"
 viewBox="0.00 0.00 505.06 330.96" xmlns="http://www.w3.org/2000/svg" xmlns:xlink="http://www.w3.org/1999/xlink">
<g id="graph0" class="graph" transform="scale(1 1) rotate(0) translate(4 326.9605)">
<title>tree</title>
<polygon fill="#ffffff" stroke="transparent" points="-4,4 -4,-326.9605 501.0574,-326.9605 501.0574,4 -4,4"/>
<!-- n2 -->
<g id="node1" class="node">
<title>n2</title>
<ellipse fill="none" stroke="#000000" cx="247.2756" cy="-296.0904" rx="65.1077" ry="26.7407"/>
<text text-anchor="middle" x="247.2756" y="-299.8904" font-family="Times,serif" font-size="14.00" fill="#000000">vais</text>
<text text-anchor="middle" x="247.2756" y="-284.8904" font-family="Times,serif" font-size="14.00" fill="#000000">VERB (root)</text>
</g>
<!-- n1 -->
<g id="node2" class="node">
<title>n1</title>
<ellipse fill="none" stroke="#000000" cx="82.2756" cy="-206.3503" rx="70.922" ry="26.7407"/>
<text text-anchor="middle" x="82.2756" y="-210.1503" font-family="Times,serif" font-size="14.00" fill="#000000">Je</text>
<text text-anchor="middle" x="82.2756" y="-195.1503" font-family="Times,serif" font-size="14.00" fill="#000000">PRON (nsubj)</text>
</g>
<!-- n2&#45;&gt;n1 -->
<g id="edge1" class="edge">
<title>n2&#45;&gt;n1</title>
<path fill="none" stroke="#000000" d="M207.754,-274.5954C185.013,-262.227 156.2272,-246.571 131.9646,-233.3751"/>
<polygon fill="#000000" stroke="#000000" points="133.3662,-230.1533 122.9092,-228.45 130.0217,-236.3026 133.3662,-230.1533"/>
</g>
<!-- n3 -->
<g id="node3" class="node">
<title>n3</title>
<ellipse fill="none" stroke="#000000" cx="247.2756" cy="-206.3503" rx="76.2353" ry="26.7407"/>
<text text-anchor="middle" x="247.2756" y="-210.1503" font-family="Times,serif" font-size="14.00" fill="#000000">faire</text>
<text text-anchor="middle" x="247.2756" y="-195.1503" font-family="Times,serif" font-size="14.00" fill="#000000">VERB (xcomp)</text>
</g>
<!-- n2&#45;&gt;n3 -->
<g id="edge2" class="edge">
<title>n2&#45;&gt;n3</title>
<path fill="none" stroke="#000000" d="M247.2756,-269.1654C247.2756,-261.0905 247.2756,-252.0872 247.2756,-243.4763"/>
<polygon fill="#000000" stroke="#000000" points="250.7757,-243.2562 247.2756,-233.2563 243.7757,-243.2563 250.7757,-243.2562"/>
</g>
<!-- n9 -->
<g id="node4" class="node">
<title>n9</title>
<ellipse fill="none" stroke="#000000" cx="419.2756" cy="-206.3503" rx="77.5641" ry="26.7407"/>
<text text-anchor="middle" x="419.2756" y="-210.1503" font-family="Times,serif" font-size="14.00" fill="#000000">.</text>
<text text-anchor="middle" x="419.2756" y="-195.1503" font-family="Times,serif" font-size="14.00" fill="#000000">PUNCT (punct)</text>
</g>
<!-- n2&#45;&gt;n9 -->
<g id="edge3" class="edge">
<title>n2&#45;&gt;n9</title>
<path fill="none" stroke="#000000" d="M288.0372,-274.8232C311.6603,-262.498 341.6496,-246.8513 366.9958,-233.627"/>
<polygon fill="#000000" stroke="#000000" points="368.8566,-236.6039 376.1035,-228.8752 365.6186,-230.3979 368.8566,-236.6039"/>
</g>
<!-- n6 -->
<g id="node5" class="node">
<title>n6</title>
<ellipse fill="none" stroke="#000000" cx="166.2756" cy="-116.6102" rx="79.3924" ry="26.7407"/>
<text text-anchor="middle" x="166.2756" y="-120.4102" font-family="Times,serif" font-size="14.00" fill="#000000">vélo</text>
<text text-anchor="middle" x="166.2756" y="-105.4102" font-family="Times,serif" font-size="14.00" fill="#000000">NOUN (obl:arg)</text>
</g>
<!-- n3&#45;&gt;n6 -->
<g id="edge4" class="edge">
<title>n3&#45;&gt;n6</title>
<path fill="none" stroke="#000000" d="M223.8471,-180.3937C215.2836,-170.9062 205.4736,-160.0377 196.407,-149.9928"/>
<polygon fill="#000000" stroke="#000000" points="198.9501,-147.5866 189.6516,-142.5084 193.7537,-152.2769 198.9501,-147.5866"/>
</g>
<!-- n8 -->
<g id="node6" class="node">
<title>n8</title>
<ellipse fill="none" stroke="#000000" cx="327.2756" cy="-116.6102" rx="63.7795" ry="26.7407"/>
<text text-anchor="middle" x="327.2756" y="-120.4102" font-family="Times,serif" font-size="14.00" fill="#000000">après&#45;midi</text>
<text text-anchor="middle" x="327.2756" y="-105.4102" font-family="Times,serif" font-size="14.00" fill="#000000">NOUN (obl)</text>
</g>
<!-- n3&#45;&gt;n8 -->
<g id="edge5" class="edge">
<title>n3&#45;&gt;n8</title>
<path fill="none" stroke="#000000" d="M270.415,-180.3937C279.0199,-170.7412 288.899,-159.6593 297.9828,-149.4695"/>
<polygon fill="#000000" stroke="#000000" points="300.6982,-151.6832 304.74,-141.8896 295.473,-147.0251 300.6982,-151.6832"/>
</g>
<!-- n4 -->
<g id="node7" class="node">
<title>n4</title>
<ellipse fill="none" stroke="#000000" cx="57.2756" cy="-26.8701" rx="57.0522" ry="26.7407"/>
<text text-anchor="middle" x="57.2756" y="-30.6701" font-family="Times,serif" font-size="14.00" fill="#000000">de</text>
<text text-anchor="middle" x="57.2756" y="-15.6701" font-family="Times,serif" font-size="14.00" fill="#000000">ADP (case)</text>
</g>
<!-- n6&#45;&gt;n4 -->
<g id="edge6" class="edge">
<title>n6&#45;&gt;n4</title>
<path fill="none" stroke="#000000" d="M135.9131,-91.6125C122.8539,-80.8609 107.4777,-68.2016 93.8018,-56.9422"/>
<polygon fill="#000000" stroke="#000000" points="95.9213,-54.1536 85.9765,-50.4996 91.472,-59.5577 95.9213,-54.1536"/>
</g>
<!-- n5 -->
<g id="node8" class="node">
<title>n5</title>
<ellipse fill="none" stroke="#000000" cx="185.2756" cy="-26.8701" rx="53.066" ry="26.7407"/>
<text text-anchor="middle" x="185.2756" y="-30.6701" font-family="Times,serif" font-size="14.00" fill="#000000">le</text>
<text text-anchor="middle" x="185.2756" y="-15.6701" font-family="Times,serif" font-size="14.00" fill="#000000">DET (det)</text>
</g>
<!-- n6&#45;&gt;n5 -->
<g id="edge7" class="edge">
<title>n6&#45;&gt;n5</title>
<path fill="none" stroke="#000000" d="M171.9763,-89.6852C173.7047,-81.5215 175.634,-72.409 177.4753,-63.7123"/>
<polygon fill="#000000" stroke="#000000" points="180.9318,-64.2842 179.579,-53.776 174.0836,-62.8342 180.9318,-64.2842"/>
</g>
<!-- n7 -->
<g id="node9" class="node">
<title>n7</title>
<ellipse fill="none" stroke="#000000" cx="327.2756" cy="-26.8701" rx="53.066" ry="26.7407"/>
<text text-anchor="middle" x="327.2756" y="-30.6701" font-family="Times,serif" font-size="14.00" fill="#000000">cet</text>
<text text-anchor="middle" x="327.2756" y="-15.6701" font-family="Times,serif" font-size="14.00" fill="#000000">DET (det)</text>
</g>
<!-- n8&#45;&gt;n7 -->
<g id="edge8" class="edge">
<title>n8&#45;&gt;n7</title>
<path fill="none" stroke="#000000" d="M327.2756,-89.6852C327.2756,-81.6102 327.2756,-72.607 327.2756,-63.9961"/>
<polygon fill="#000000" stroke="#000000" points="330.7757,-63.776 327.2756,-53.776 323.7757,-63.7761 330.7757,-63.776"/>
</g>
</g>
</svg>
